<svg id="Layer_1" data-name="Layer 1" xmlns="http://www.w3.org/2000/svg" viewBox="0 0 290.56 144.2"><defs><style>.cls-1{fill:#2b9347;}</style></defs><path class="cls-1" d="M150.07,5.55c7,0,14.07.31,21,.92L278.85,15.9A6.72,6.72,0,0,1,285,22.62v98.71a6.72,6.72,0,0,1-6.16,6.72L171.1,137.48c-7,.61-14,.92-21,.92-6.47,0-13-.27-19.48-.79L11.76,128a6.79,6.79,0,0,1-6.21-6.73V22.69A6.78,6.78,0,0,1,11.76,16L130.59,6.34c6.46-.52,13-.79,19.48-.79m0-5.55q-10,0-19.92.81L11.31,10.43A12.31,12.31,0,0,0,0,22.69v98.56a12.31,12.31,0,0,0,11.31,12.27l118.84,9.62q9.93.81,19.92.81,10.77,0,21.51-.94l107.76-9.43a12.29,12.29,0,0,0,11.22-12.25V22.62a12.29,12.29,0,0,0-11.22-12.25L171.58.94Q160.86,0,150.07,0Z"/><path class="cls-1" d="M93.8,105.31a2.27,2.27,0,0,1,2.3,2.45v10.59c0,6.08-3.87,8.6-11.1,8.12s-11.09-3.55-11.09-9.66V93.49c0-6.11,3.86-8.61,11.09-8s11.1,3.64,11.1,9.72v3.4a1.93,1.93,0,0,1-2.3,2.12l-3.7-.28a2.27,2.27,0,0,1-2.3-2.46v-3.4A2.75,2.75,0,0,0,85,91.7a2.31,2.31,0,0,0-2.8,2.42v23.26a2.73,2.73,0,0,0,2.8,2.83,2.33,2.33,0,0,0,2.8-2.44v-6.64l-.5,0a2.27,2.27,0,0,1-2.3-2.45V107a1.94,1.94,0,0,1,2.3-2.13Z"/><path class="cls-1" d="M118.69,111.82l5.09,13.84c.45,1.2.17,3.3-2.12,3.15l-3.87-.24a2.34,2.34,0,0,1-2.24-1.65l-5-14.3-1.68-.11v13.2a2,2,0,0,1-2.3,2.15l-3.7-.23a2.25,2.25,0,0,1-2.3-2.44v-36a1.94,1.94,0,0,1,2.3-2.13l8.8.64c7.23.52,11.1,3.59,11.1,9.67v7.19C122.78,108.25,121.37,110.61,118.69,111.82Zm-7-5.38a2.33,2.33,0,0,0,2.8-2.44V96.79a2.73,2.73,0,0,0-2.8-2.82l-2.8-.2v12.47Z"/><path class="cls-1" d="M143.68,90.5A2.32,2.32,0,0,1,146,93v1.68a1.9,1.9,0,0,1-2.3,2.08L135.55,96v10.85l6,.51a2.3,2.3,0,0,1,2.3,2.48v1.68a1.91,1.91,0,0,1-2.3,2.09l-6-.5V124l8.13.66a2.29,2.29,0,0,1,2.3,2.47v1.67a1.92,1.92,0,0,1-2.3,2.11l-14.12-1.11a2.3,2.3,0,0,1-2.3-2.48v-36a1.89,1.89,0,0,1,2.3-2.09Z"/><path class="cls-1" d="M168.05,90.09a2,2,0,0,1,2.3,2.14V93.9a2.24,2.24,0,0,1-2.3,2.43l-8.13.54v10.84l6-.42a1.93,1.93,0,0,1,2.3,2.12v1.67a2.27,2.27,0,0,1-2.3,2.45l-6,.44V124.8l8.13-.62a1.92,1.92,0,0,1,2.3,2.11V128a2.28,2.28,0,0,1-2.3,2.46l-14.12,1.11a1.92,1.92,0,0,1-2.3-2.11v-36a2.26,2.26,0,0,1,2.3-2.45Z"/><path class="cls-1" d="M188.17,91.34a2.21,2.21,0,0,1,2.3-2.4l3.14-.17a2,2,0,0,1,2.29,2.16v35.74a2.25,2.25,0,0,1-2.29,2.43l-3.76.24a2,2,0,0,1-2.3-1.53L183.35,116l-2.75-9.57-.56.15.84,10v11.07a2.26,2.26,0,0,1-2.29,2.44l-3.14.2a2,2,0,0,1-2.3-2.15v-36a2.23,2.23,0,0,1,2.3-2.42l3.75-.19a2.05,2.05,0,0,1,2.3,1.55l4.2,11.84,2.75,9.55.56-.14-.84-9.94Z"/><path class="cls-1" d="M210.87,102.32l6.55,5.13c4,3.15,4.6,5.89,4.6,11.07,0,6.07-3.87,9.11-11.1,9.6s-11.09-2.06-11.09-8.17v-4a2.25,2.25,0,0,1,2.29-2.44l3.7-.23a2,2,0,0,1,2.3,2.15v4a2.33,2.33,0,0,0,2.8,2.44,2.72,2.72,0,0,0,2.81-2.81c0-2.9-.45-4.37-2.75-6.13l-6.56-5.13c-4-3.17-4.59-5.94-4.59-11.16,0-6.1,3.86-9.12,11.09-9.51S222,89.3,222,95.37v3.95a2.24,2.24,0,0,1-2.3,2.42L216,102a2,2,0,0,1-2.29-2.15v-4a2.36,2.36,0,0,0-2.81-2.46,2.68,2.68,0,0,0-2.8,2.78C208.12,99.07,208.57,100.55,210.87,102.32Z"/><path class="cls-1" d="M23.75,49.82V62a2.31,2.31,0,0,1-2.38,2.51l-3.84.22a2,2,0,0,1-2.38-2.25V25.15a2.32,2.32,0,0,1,2.38-2.52l8.54-.47c7.5-.42,11.5,2.26,11.5,8.59v9.06c0,6.33-4,9.46-11.5,9.88Zm2.32-6.64A2.78,2.78,0,0,0,29,40.29V31.23a2.46,2.46,0,0,0-2.91-2.57l-2.32.13V43.31Z"/><path class="cls-1" d="M53.05,58.93l-.69-5.66-6.84.34-.68,5.74a2.26,2.26,0,0,1-2.34,2.17l-3.42.17c-1.71.09-2.57-1.07-2.28-2.79l5.47-36.43a2.33,2.33,0,0,1,2.4-2.34l8.55-.43c1.31-.07,2.17.46,2.39,2.1l5.48,35.87a2.34,2.34,0,0,1-2.28,3l-3.42.18A2,2,0,0,1,53.05,58.93ZM46.26,47.19l5.31-.27-.75-6.46L49.23,25.32l-.57,0-1.6,15.3Z"/><path class="cls-1" d="M86.81,31.74a2.31,2.31,0,0,1-2.36,2.5l-3.8.21a2,2,0,0,1-2.37-2.24V26.4a2.43,2.43,0,0,0-2.88-2.55,2.76,2.76,0,0,0-2.88,2.87v24a2.43,2.43,0,0,0,2.88,2.55,2.75,2.75,0,0,0,2.88-2.86V44.54a2.29,2.29,0,0,1,2.37-2.49l3.8-.21a2,2,0,0,1,2.36,2.23v5.81c0,6.28-4,9.38-11.41,9.79S64,57.42,64,51.14v-24c0-6.27,4-9.37,11.4-9.78s11.41,2.25,11.41,8.53Z"/><path class="cls-1" d="M100.24,33.19l.57,0L107.29,17a2.28,2.28,0,0,1,2.14-1.4l3.84-.2c2.42-.12,2.53,2.18,2.14,3.16l-7.27,17.51,7.27,16.77a2.39,2.39,0,0,1-2.14,3.37l-3.84.2a2,2,0,0,1-2.14-1.18l-6.48-15.51-.57,0V54.56A2.23,2.23,0,0,1,97.93,57l-3.72.2A2,2,0,0,1,91.9,55V18.79a2.24,2.24,0,0,1,2.31-2.43l3.72-.19a2,2,0,0,1,2.31,2.2Z"/><path class="cls-1" d="M130.66,40.61l-.38-3.2h-3.85l-.39,3.2a1.19,1.19,0,0,1-1.31,1.16H122.8a1.25,1.25,0,0,1-1.28-1.64l3.08-20.34c.13-.93.61-1.25,1.35-1.25h4.81c.74,0,1.22.32,1.35,1.25l3.08,20.34a1.26,1.26,0,0,1-1.29,1.64H132A1.2,1.2,0,0,1,130.66,40.61Zm-3.81-6.8h3l-.42-3.65-.89-8.57h-.33l-.89,8.57Z"/><path class="cls-1" d="M155.2,32.88v6.25a2,2,0,0,1-2.3,2.18l-3.7-.18c-1.45-.07-2.29.25-2.29-1.21V14.57a2,2,0,0,1,2.29-2.17l8.24.46c7.23.4,11.1,3.4,11.1,9.48v3.23c0,6.08-3.87,7.79-11.1,7.42Zm2.24-6.5c1.85.1,2.81.26,2.81-1.25V21.9a2.69,2.69,0,0,0-2.81-2.78L155.2,19v7.27Z"/><path class="cls-1" d="M171.79,16.52a2,2,0,0,1,2.39-2.21l3.85.3a2.38,2.38,0,0,1,2.39,2.57V48a2.83,2.83,0,0,0,2.91,2.93c1.92.13,2.92-1,2.92-2.53V17.62a2,2,0,0,1,2.39-2.2l3.84.3a2.37,2.37,0,0,1,2.39,2.56V49c0,6.33-4,9-11.54,8.45s-11.54-3.68-11.54-10Z"/><path class="cls-1" d="M214.19,19.86a2,2,0,0,1,2.4-2.22l3.29.25a2.38,2.38,0,0,1,2.41,2.57V57.93a2,2,0,0,1-2.41,2.23L216,59.91A2.47,2.47,0,0,1,213.54,58l-4.4-12.93-2.87-10.39-.59.08.88,10.54V56.9a2,2,0,0,1-2.41,2.25l-3.28-.22a2.36,2.36,0,0,1-2.41-2.56V18.7a2,2,0,0,1,2.41-2.23l3.93.3a2.52,2.52,0,0,1,2.41,1.93l4.4,13L214.48,42l.59-.08-.88-10.52Z"/><path class="cls-1" d="M248.55,35.37a2,2,0,0,1-2.38,2.2l-3.84-.28a2.36,2.36,0,0,1-2.39-2.55V28.88a2.84,2.84,0,0,0-2.9-2.94,2.4,2.4,0,0,0-2.91,2.51V52.59A2.83,2.83,0,0,0,237,55.52a2.41,2.41,0,0,0,2.9-2.52V47.14a2,2,0,0,1,2.39-2.2l3.84.27a2.35,2.35,0,0,1,2.38,2.54V53.6c0,6.3-4,8.93-11.51,8.42s-11.52-3.68-11.52-10V27.8c0-6.34,4-8.94,11.52-8.36s11.51,3.78,11.51,10.09Z"/><path class="cls-1" d="M261,39.25l5.82.42V24.29a2,2,0,0,1,2.39-2.2l3.84.29a2.37,2.37,0,0,1,2.39,2.56V62.13A2,2,0,0,1,273,64.34l-3.84-.25a2.36,2.36,0,0,1-2.39-2.54V46.17L261,45.76v15.4a2,2,0,0,1-2.39,2.22l-3.84-.25a2.36,2.36,0,0,1-2.39-2.55V23.2A2,2,0,0,1,254.74,21l3.84.29A2.38,2.38,0,0,1,261,23.85Z"/><rect class="cls-1" x="112.47" y="30.67" width="7.38" height="3.81" rx="1.33"/><rect class="cls-1" x="136.73" y="30.67" width="7.38" height="3.81" rx="1.33"/><path class="cls-1" d="M86,70.52a33.18,33.18,0,0,0,4.22-.71c2.87-.69,9.08-1.73,19.38-1.31,15,.62,12.14-5.5,12.14-5.5s-.59-2.21-29.37,1.6c-15.29,2-22,2.79-24.93,4.2-2.61,1.26-2.19,3.28-2.19,3.28s-.42,2.26,8.69.41C80,71.26,83.8,70.74,86,70.52Z"/><path class="cls-1" d="M154.85,48.88s.41.4.75.25c1.22-.55,4.31-2,6.32.87l.19.29c2.55,4.08-.83,23.84-4,24.09a14.27,14.27,0,0,1-5.39.06.82.82,0,0,1-.58-.44c-.33-.67,0-2.33,1.59-6.83a2.57,2.57,0,0,0,.16-.62,38.77,38.77,0,0,0,.51-7.28c-.06-1-1.79-1.32-2.07-.42a12.28,12.28,0,0,0-.34,1.56.22.22,0,0,1,0,.08c0,.63-1.05,9.24-2.73,13.93a.8.8,0,0,1-.31.37c-.58.34-1.93,1.43-5-.44a.82.82,0,0,1-.34-.42c-.24-.75.14-3.5,1.79-11.18,0,0,.91-5.91-.14-6.62,0,0-1.91-1.5-2.42,3.57v0c0,.64-.56,14.33-2.68,15.2,0,0-2.61,1.59-5.05-1.59a.81.81,0,0,1-.16-.5,43.27,43.27,0,0,0-.41-9.9.82.82,0,0,0-1.63.24c0,.11,0,.23.05.35s.75,7.38-1.22,8.88a.57.57,0,0,1-.13.08c-.39.2-2.24.94-3.21-1.82l-.06-.12C128,69.79,123,60.63,126,52.06a2.39,2.39,0,0,1,.12-.22,4.91,4.91,0,0,1,6.66-2,.83.83,0,0,0,1.11-.35s2.52-5.39,8.61-2.21a.91.91,0,0,0,1.24-.18S150.16,42.66,154.85,48.88Z"/><path class="cls-1" d="M141.12,77.49a26.86,26.86,0,0,0,3.11-.12c3.5-.41,10.43-.81,11.47,2.41.89,2.75-1.36,4.33-3.13,5.13a3.71,3.71,0,0,1-3.19-.07,32.79,32.79,0,0,0-8.85-2.72s-2.92-.77-3.46-1.73C137.07,80.39,135.25,77.49,141.12,77.49Z"/><path class="cls-1" d="M173.91,64.22a18.71,18.71,0,0,1-4-1.61,2.64,2.64,0,0,0-3.16,0c-1.28,1.14-1.2,3.37.24,4.94,1,1.06,3.14,1.54,5.15,1.76a23.13,23.13,0,0,0,6-.2,36.09,36.09,0,0,1,11.44.21l.08,0c13.69,3.78,34.67,16.27,35.75,17.77a1.5,1.5,0,0,1,.27.71,15.4,15.4,0,0,0,5.25,9.9,12.21,12.21,0,0,0,3.76,2.22c9.53,3.53,14.37,3.07,16.59,2.31a2.05,2.05,0,0,0,1.36-2.39C249.28,84.15,234,84.4,229.61,84.81a3,3,0,0,1-2.17-.67c-5.85-4.81-26.28-13.32-27.84-14a1.51,1.51,0,0,1-.95-1.27c-.11-2.17,12.66.22,15.23.66a6.94,6.94,0,0,1,2.42.9c3.42,2.08,7.22,4.8,9.47,6.46,1.39,1,4.89,1.69,6.61,1.78a37.29,37.29,0,0,0,9.63-.63,1.56,1.56,0,0,0,.86-2.63c-1.19-1.21-3.1-3.33-6.58-7.13-6.49-7.09-13.35-4.06-16-2.38a3.44,3.44,0,0,1-2.65.43,142.41,142.41,0,0,0-15.71-1.65c-1.26,0-6.26.4-7.52.45C194.36,65.17,178.83,66,173.91,64.22Z"/></svg>