<svg id="Layer_1" data-name="Layer 1" xmlns="http://www.w3.org/2000/svg" viewBox="0 0 150 74.44"><defs><style>.cls-1{fill:#2b9347;}</style></defs><path class="cls-1" d="M77.47,2.81c3.61,0,7.26.16,10.86.47L144,8.15a3.46,3.46,0,0,1,3.18,3.47v51A3.45,3.45,0,0,1,144,66L88.33,70.91c-3.6.32-7.25.47-10.86.47-3.34,0-6.72-.13-10-.4L6.07,66a3.5,3.5,0,0,1-3.2-3.47V11.66a3.5,3.5,0,0,1,3.2-3.48l61.35-5c3.33-.27,6.71-.4,10-.4m0-2.87q-5.14,0-10.28.42l-61.35,5A6.34,6.34,0,0,0,0,11.66V62.54a6.36,6.36,0,0,0,5.84,6.33l61.35,5q5.13.41,10.28.41,5.57,0,11.11-.48L144.2,68.9a6.35,6.35,0,0,0,5.8-6.33V11.62a6.35,6.35,0,0,0-5.8-6.33L88.58.42Q83-.06,77.47-.06Z"/><path class="cls-1" d="M48.42,54.3a1.18,1.18,0,0,1,1.19,1.27V61c0,3.13-2,4.44-5.73,4.19s-5.73-1.84-5.73-5v-12c0-3.15,2-4.44,5.73-4.15s5.73,1.88,5.73,5v1.76a1,1,0,0,1-1.19,1.09l-1.91-.14a1.17,1.17,0,0,1-1.18-1.27V48.74a1.41,1.41,0,0,0-1.45-1.46,1.2,1.2,0,0,0-1.45,1.25v12A1.41,1.41,0,0,0,43.88,62a1.2,1.2,0,0,0,1.45-1.25V57.31l-.26,0A1.18,1.18,0,0,1,43.88,56v-.86a1,1,0,0,1,1.19-1.1Z"/><path class="cls-1" d="M61.27,57.67l2.63,7.14c.23.62.09,1.7-1.1,1.63l-2-.13a1.21,1.21,0,0,1-1.16-.85l-2.58-7.38L56.21,58v6.82A1,1,0,0,1,55,66l-1.91-.12a1.17,1.17,0,0,1-1.19-1.26V46a1,1,0,0,1,1.19-1.1l4.54.33c3.74.27,5.73,1.85,5.73,5v3.71A3.69,3.69,0,0,1,61.27,57.67Zm-3.62-2.78a1.21,1.21,0,0,0,1.45-1.26V49.91a1.41,1.41,0,0,0-1.45-1.46l-1.44-.1v6.44Z"/><path class="cls-1" d="M74.17,46.66A1.2,1.2,0,0,1,75.36,48v.86a1,1,0,0,1-1.19,1.07L70,49.51v5.6l3.09.27a1.18,1.18,0,0,1,1.19,1.28v.86a1,1,0,0,1-1.19,1.08L70,58.35V64l4.19.33a1.18,1.18,0,0,1,1.19,1.28v.86a1,1,0,0,1-1.19,1.09l-7.29-.58a1.17,1.17,0,0,1-1.18-1.27V47.08A1,1,0,0,1,66.88,46Z"/><path class="cls-1" d="M86.75,46.45a1,1,0,0,1,1.19,1.1v.86a1.16,1.16,0,0,1-1.19,1.26L82.56,50v5.59l3.09-.21a1,1,0,0,1,1.19,1.09v.86a1.18,1.18,0,0,1-1.19,1.27l-3.09.22v5.6l4.19-.32a1,1,0,0,1,1.19,1.09V66a1.18,1.18,0,0,1-1.19,1.27l-7.29.57a1,1,0,0,1-1.18-1.09V48.17a1.16,1.16,0,0,1,1.18-1.26Z"/><path class="cls-1" d="M97.14,47.1a1.15,1.15,0,0,1,1.19-1.25l1.62-.08a1,1,0,0,1,1.18,1.11V65.33A1.15,1.15,0,0,1,100,66.58L98,66.71a1,1,0,0,1-1.19-.79l-2.17-6.09-1.42-4.94-.29.08.44,5.14v5.72a1.17,1.17,0,0,1-1.19,1.26l-1.62.1a1,1,0,0,1-1.18-1.11V47.51a1.14,1.14,0,0,1,1.18-1.25l1.94-.1a1.07,1.07,0,0,1,1.19.8l2.17,6.11L97.28,58l.29-.07-.43-5.13Z"/><path class="cls-1" d="M108.86,52.76l3.38,2.65c2.09,1.62,2.38,3,2.38,5.71,0,3.14-2,4.71-5.73,5s-5.73-1.06-5.73-4.22v-2a1.16,1.16,0,0,1,1.18-1.26l1.91-.12a1,1,0,0,1,1.19,1.11v2.05a1.21,1.21,0,0,0,1.45,1.26,1.4,1.4,0,0,0,1.44-1.45,3.29,3.29,0,0,0-1.41-3.17l-3.39-2.65c-2.08-1.63-2.37-3.06-2.37-5.75,0-3.16,2-4.71,5.73-4.92s5.73,1.13,5.73,4.26v2a1.16,1.16,0,0,1-1.19,1.25l-1.91.11a1,1,0,0,1-1.19-1.11v-2a1.22,1.22,0,0,0-1.44-1.28,1.39,1.39,0,0,0-1.45,1.44A3.29,3.29,0,0,0,108.86,52.76Z"/><path class="cls-1" d="M12.26,25.66v6.26A1.19,1.19,0,0,1,11,33.22l-2,.11a1.05,1.05,0,0,1-1.23-1.16V12.92a1.2,1.2,0,0,1,1.23-1.3l4.41-.24c3.87-.22,5.94,1.17,5.94,4.43v4.68c0,3.27-2.07,4.88-5.94,5.1Zm1.2-3.43A1.43,1.43,0,0,0,15,20.74V16.06a1.26,1.26,0,0,0-1.5-1.32l-1.2.06v7.5Z"/><path class="cls-1" d="M27.39,30.36,27,27.44l-3.53.18-.35,3a1.16,1.16,0,0,1-1.21,1.12l-1.77.09c-.88,0-1.32-.55-1.17-1.45l2.82-18.8a1.2,1.2,0,0,1,1.24-1.21l4.41-.22c.68,0,1.12.24,1.24,1.09l2.83,18.51a1.21,1.21,0,0,1-1.18,1.56l-1.77.09A1,1,0,0,1,27.39,30.36ZM23.88,24.3l2.74-.14-.38-3.33L25.41,13h-.29l-.82,7.9Z"/><path class="cls-1" d="M44.81,16.33a1.18,1.18,0,0,1-1.22,1.28l-2,.11a1,1,0,0,1-1.22-1.15v-3a1.25,1.25,0,0,0-1.48-1.32,1.43,1.43,0,0,0-1.49,1.48V26.1a1.25,1.25,0,0,0,1.49,1.31,1.42,1.42,0,0,0,1.48-1.48v-3a1.18,1.18,0,0,1,1.22-1.28l2-.11a1,1,0,0,1,1.22,1.15v3c0,3.24-2.05,4.84-5.88,5S33,29.58,33,26.34V14c0-3.24,2.05-4.84,5.89-5.05s5.88,1.16,5.88,4.41Z"/><path class="cls-1" d="M51.75,17.08l.29,0,3.35-8.35A1.16,1.16,0,0,1,56.49,8l2-.11a1.14,1.14,0,0,1,1.11,1.64l-3.76,9,3.76,8.65A1.24,1.24,0,0,1,58.47,29l-2,.11a1,1,0,0,1-1.1-.62l-3.35-8h-.29v7.66a1.16,1.16,0,0,1-1.19,1.25l-1.93.1a1,1,0,0,1-1.19-1.13V9.64a1.16,1.16,0,0,1,1.19-1.25l1.93-.1a1,1,0,0,1,1.19,1.13Z"/><path class="cls-1" d="M67.45,20.91l-.19-1.66h-2l-.2,1.66a.62.62,0,0,1-.68.59h-1a.65.65,0,0,1-.67-.84l1.59-10.5c.07-.48.32-.65.7-.65H67.5c.38,0,.63.17.7.65l1.59,10.5a.65.65,0,0,1-.66.84h-1A.62.62,0,0,1,67.45,20.91Zm-2-3.51H67l-.21-1.89-.47-4.42h-.16l-.46,4.42Z"/><path class="cls-1" d="M80.12,16.91v3.23a1,1,0,0,1-1.19,1.13L77,21.17c-.75,0-1.18.13-1.18-.62V7.46A1,1,0,0,1,77,6.34l4.26.24C85,6.79,87,8.33,87,11.47v1.67c0,3.14-2,4-5.73,3.83Zm1.16-3.35c1,0,1.45.13,1.45-.65V11.24a1.38,1.38,0,0,0-1.44-1.43l-1.16-.06V13.5Z"/><path class="cls-1" d="M88.68,8.47a1,1,0,0,1,1.24-1.14l2,.15a1.23,1.23,0,0,1,1.24,1.33V24.7a1.46,1.46,0,0,0,1.5,1.51,1.25,1.25,0,0,0,1.51-1.31V9A1,1,0,0,1,97.38,7.9l2,.15a1.23,1.23,0,0,1,1.23,1.33V25.21c0,3.27-2.08,4.62-6,4.36s-6-1.9-6-5.18Z"/><path class="cls-1" d="M110.57,10.19a1,1,0,0,1,1.24-1.14l1.7.12a1.23,1.23,0,0,1,1.24,1.33V29.84A1,1,0,0,1,113.51,31l-2-.13a1.27,1.27,0,0,1-1.24-1L108,23.21l-1.49-5.37-.3,0,.45,5.45v6a1,1,0,0,1-1.24,1.16l-1.69-.11A1.22,1.22,0,0,1,102.45,29V9.59a1.05,1.05,0,0,1,1.25-1.15l2,.16a1.29,1.29,0,0,1,1.25,1l2.27,6.7,1.48,5.35.31,0-.46-5.43Z"/><path class="cls-1" d="M128.31,18.2a1,1,0,0,1-1.23,1.13l-2-.14a1.22,1.22,0,0,1-1.23-1.32v-3a1.47,1.47,0,0,0-1.5-1.52,1.24,1.24,0,0,0-1.5,1.29V27.09a1.46,1.46,0,0,0,1.5,1.51,1.24,1.24,0,0,0,1.5-1.3v-3a1,1,0,0,1,1.23-1.14l2,.14a1.21,1.21,0,0,1,1.23,1.31v3c0,3.25-2.07,4.61-5.94,4.35s-6-1.91-6-5.18V14.29c0-3.27,2.07-4.61,6-4.31s5.94,1.95,5.94,5.2Z"/><path class="cls-1" d="M134.72,20.2l3,.22V12.48A1,1,0,0,1,139,11.34l2,.15a1.23,1.23,0,0,1,1.23,1.32V32A1,1,0,0,1,141,33.15L139,33a1.21,1.21,0,0,1-1.23-1.31V23.77l-3-.21v8a1,1,0,0,1-1.23,1.15l-2-.13a1.22,1.22,0,0,1-1.24-1.32V11.91a1,1,0,0,1,1.24-1.13l2,.15a1.22,1.22,0,0,1,1.23,1.32Z"/><rect class="cls-1" x="58.06" y="15.77" width="3.81" height="1.97" rx="0.98"/><rect class="cls-1" x="70.59" y="15.77" width="3.81" height="1.97" rx="0.98"/><path class="cls-1" d="M44.38,36.34A16,16,0,0,0,46.56,36a37.32,37.32,0,0,1,10-.68c7.73.32,6.27-2.84,6.27-2.84s-.31-1.14-15.16.83c-7.89,1.05-11.36,1.44-12.87,2.17-1.35.65-1.13,1.69-1.13,1.69s-.22,1.17,4.49.21C41.28,36.73,43.26,36.46,44.38,36.34Z"/><path class="cls-1" d="M79.94,25.17s.21.21.39.13c.63-.28,2.22-1,3.26.45l.1.15c1.31,2.11-.43,12.31-2,12.44a7.38,7.38,0,0,1-2.79,0,.44.44,0,0,1-.3-.23c-.16-.35,0-1.2.83-3.52a1.87,1.87,0,0,0,.08-.32,19.38,19.38,0,0,0,.26-3.76c0-.49-.92-.69-1.06-.22a4.76,4.76,0,0,0-.18.81v0a40,40,0,0,1-1.42,7.19.4.4,0,0,1-.15.19c-.31.17-1,.74-2.56-.23a.43.43,0,0,1-.18-.22c-.12-.38.08-1.8.93-5.77,0,0,.47-3-.07-3.41,0,0-1-.78-1.25,1.84v0c0,.34-.29,7.4-1.39,7.85,0,0-1.34.82-2.6-.82a.39.39,0,0,1-.09-.26,21.92,21.92,0,0,0-.21-5.11.43.43,0,0,0-.84.13l0,.17s.38,3.82-.63,4.59l-.07,0c-.2.1-1.16.49-1.66-.94l0-.06c-.22-.4-2.78-5.13-1.25-9.55a.45.45,0,0,1,.06-.12,2.51,2.51,0,0,1,3.43-1,.44.44,0,0,0,.58-.18s1.3-2.79,4.45-1.15a.46.46,0,0,0,.63-.09S77.52,22,79.94,25.17Z"/><path class="cls-1" d="M72.85,39.94a14.35,14.35,0,0,0,1.61-.06c1.8-.21,5.38-.42,5.92,1.25.46,1.41-.7,2.23-1.62,2.64a1.92,1.92,0,0,1-1.64,0,16.72,16.72,0,0,0-4.57-1.41s-1.51-.4-1.79-.89C70.76,41.44,69.82,39.94,72.85,39.94Z"/><path class="cls-1" d="M89.78,33.09a9.31,9.31,0,0,1-2.08-.83,1.35,1.35,0,0,0-1.63,0,1.82,1.82,0,0,0,.12,2.55,4.6,4.6,0,0,0,2.67.9,11.26,11.26,0,0,0,3.12-.1,18.59,18.59,0,0,1,5.9.11h.05c7.06,2,17.89,8.4,18.45,9.18a.67.67,0,0,1,.14.36,8,8,0,0,0,2.71,5.11,6.15,6.15,0,0,0,1.94,1.15c4.92,1.82,7.42,1.58,8.57,1.19a1.07,1.07,0,0,0,.7-1.23c-1.75-8.14-9.64-8-11.91-7.8a1.54,1.54,0,0,1-1.12-.35c-3-2.48-13.56-6.87-14.37-7.2a.78.78,0,0,1-.49-.66c-.06-1.12,6.54.12,7.86.34a3.63,3.63,0,0,1,1.25.47c1.77,1.08,3.73,2.48,4.89,3.34a8.43,8.43,0,0,0,3.41.91,19.29,19.29,0,0,0,5-.32.8.8,0,0,0,.45-1.36c-.62-.62-1.6-1.72-3.4-3.68A6.14,6.14,0,0,0,113.69,34a1.72,1.72,0,0,1-1.36.22,74,74,0,0,0-8.11-.85c-.65,0-3.23.21-3.88.23C100.34,33.58,92.32,34,89.78,33.09Z"/></svg>